# Blender v2.79 (sub 0) OBJ File: 'hole2.blend'
# www.blender.org
mtllib hole2.mtl
o Cylinder
v 0.000000 -7.118259 -1.000000
v 0.309017 -7.118259 -0.951057
v 0.587785 -7.118259 -0.809017
v 0.809017 -7.118259 -0.587785
v 0.951057 -7.118259 -0.309017
v 1.000000 -7.118259 0.000000
v 0.951056 -7.118259 0.309017
v 0.809017 -7.118259 0.587785
v 0.587785 -7.118259 0.809017
v 0.309017 -7.118259 0.951057
v -0.000000 -7.118259 1.000000
v -0.309017 -7.118259 0.951056
v -0.587786 -7.118259 0.809017
v -0.809017 -7.118259 0.587785
v -0.951057 -7.118259 0.309016
v -1.000000 -7.118259 -0.000001
v -0.951056 -7.118259 -0.309018
v -0.809016 -7.118259 -0.587786
v -0.587784 -7.118259 -0.809018
v -0.309016 -7.118259 -0.951057
v -29.271191 1.000001 -29.070396
v 29.411957 1.000001 -29.288586
v 29.213959 1.000000 60.951485
v -29.416718 0.999999 60.680717
v 0.000000 0.797375 -1.000000
v -0.000000 1.000000 -1.205150
v 0.372412 1.000000 -1.146166
v 0.309017 0.797375 -0.951057
v 0.708370 1.000000 -0.974987
v 0.587785 0.797375 -0.809017
v 0.974987 1.000000 -0.708369
v 0.809017 0.797375 -0.587785
v 1.146166 1.000000 -0.372412
v 0.951057 0.797375 -0.309017
v 1.205150 1.000000 0.000000
v 1.000000 0.797375 0.000000
v 1.146166 1.000000 0.372412
v 0.951056 0.797375 0.309017
v 0.974987 1.000000 0.708370
v 0.809017 0.797375 0.587785
v 0.708369 1.000000 0.974987
v 0.587785 0.797375 0.809017
v 0.372412 1.000000 1.146166
v 0.309017 0.797375 0.951057
v -0.000000 1.000000 1.205150
v -0.000000 0.797375 1.000000
v -0.372412 1.000000 1.146166
v -0.309017 0.797375 0.951056
v -0.708370 1.000000 0.974987
v -0.587786 0.797375 0.809017
v -0.974988 1.000000 0.708369
v -0.809017 0.797375 0.587785
v -1.146166 1.000000 0.372411
v -0.951057 0.797375 0.309016
v -1.205150 1.000000 -0.000001
v -1.000000 0.797375 -0.000001
v -1.146166 1.000000 -0.372413
v -0.951056 0.797375 -0.309018
v -0.974986 1.000000 -0.708371
v -0.809016 0.797375 -0.587786
v -0.708368 1.000000 -0.974988
v -0.587784 0.797375 -0.809018
v -0.372410 1.000000 -1.146167
v -0.309016 0.797375 -0.951057
v 0.000000 -7.555677 -0.755590
v 0.233490 -7.555677 -0.718609
v 0.444125 -7.555677 -0.611285
v 0.611285 -7.555677 -0.444125
v 0.718609 -7.555677 -0.233490
v 0.755590 -7.555677 -0.000000
v 0.718609 -7.555677 0.233490
v 0.611285 -7.555677 0.444125
v 0.444125 -7.555677 0.611285
v 0.233490 -7.555677 0.718609
v -0.000000 -7.555677 0.755590
v -0.233491 -7.555677 0.718609
v -0.444125 -7.555677 0.611285
v -0.611286 -7.555677 0.444124
v -0.718609 -7.555677 0.233490
v -0.755590 -7.555677 -0.000001
v -0.718609 -7.555677 -0.233491
v -0.611285 -7.555677 -0.444126
v -0.444124 -7.555677 -0.611286
v -0.233489 -7.555677 -0.718609
v 0.309017 0.797375 -0.951057
v 0.000000 0.797375 -1.000000
v -0.000000 1.000000 -1.205150
v 0.372412 1.000000 -1.146166
v 0.587785 0.797375 -0.809017
v 0.708370 1.000000 -0.974987
v 0.809017 0.797375 -0.587785
v 0.974987 1.000000 -0.708369
v 0.951057 0.797375 -0.309017
v 1.146166 1.000000 -0.372412
v 1.000000 0.797375 0.000000
v 1.205150 1.000000 0.000000
v 0.951056 0.797375 0.309017
v 1.146166 1.000000 0.372412
v 0.809017 0.797375 0.587785
v 0.974987 1.000000 0.708370
v 0.587785 0.797375 0.809017
v 0.708369 1.000000 0.974987
v 0.309017 0.797375 0.951057
v 0.372412 1.000000 1.146166
v -0.000000 0.797375 1.000000
v -0.000000 1.000000 1.205150
v -0.309017 0.797375 0.951056
v -0.372412 1.000000 1.146166
v -0.587786 0.797375 0.809017
v -0.708370 1.000000 0.974987
v -0.809017 0.797375 0.587785
v -0.974988 1.000000 0.708369
v -0.951057 0.797375 0.309016
v -1.146166 1.000000 0.372411
v -1.000000 0.797375 -0.000001
v -1.205150 1.000000 -0.000001
v -0.951056 0.797375 -0.309018
v -1.146166 1.000000 -0.372413
v -0.809016 0.797375 -0.587786
v -0.974986 1.000000 -0.708371
v -0.587784 0.797375 -0.809018
v -0.708368 1.000000 -0.974988
v -0.309016 0.797375 -0.951057
v -0.372410 1.000000 -1.146167
vt 0.445566 0.000000
vt 0.500000 0.000000
vt 0.500000 0.961178
vt 0.445566 0.961178
vt 0.624782 1.000000
vt 0.654509 1.000000
vt 0.565602 1.000000
vt 0.671748 1.000000
vt 0.793893 1.000000
vt 0.701902 1.000000
vt 0.904508 1.000000
vt 0.712292 1.000000
vt 1.000000 1.000000
vt 0.975528 1.000000
vt 0.701902 1.000000
vt 0.671748 1.000000
vt 0.975528 1.000000
vt 0.624782 1.000000
vt 0.904508 1.000000
vt 0.565602 1.000000
vt 0.793893 1.000000
vt 0.500000 1.000000
vt 0.500000 1.000000
vt 0.654509 1.000000
vt 0.434398 1.000000
vt 0.375218 1.000000
vt 0.345491 1.000000
vt 0.328252 1.000000
vt 0.206107 1.000000
vt 0.298098 1.000000
vt 0.024471 1.000000
vt 0.095491 1.000000
vt 0.287708 1.000000
vt 0.298098 1.000000
vt 0.000000 1.000000
vt 0.328252 1.000000
vt 0.375218 1.000000
vt 0.095492 1.000000
vt 0.434398 1.000000
vt 0.206108 1.000000
vt 0.500000 1.000000
vt 0.345492 1.000000
vt 0.445565 0.000000
vt 0.396459 0.000000
vt 0.396459 0.961178
vt 0.445565 0.961178
vt 0.332468 0.000000
vt 0.357489 0.000000
vt 0.357489 0.961178
vt 0.332468 0.961178
vt 0.667533 0.000000
vt 0.676154 0.000000
vt 0.676154 0.961178
vt 0.667533 0.961178
vt 0.554434 0.000000
vt 0.500000 0.000000
vt 0.500000 0.961178
vt 0.554434 0.961178
vt 0.332468 0.000000
vt 0.323846 0.000000
vt 0.323846 0.961178
vt 0.332468 0.961178
vt 0.603541 0.000000
vt 0.642512 0.000000
vt 0.642512 0.961178
vt 0.603541 0.961178
vt 0.642512 0.000000
vt 0.603541 0.000000
vt 0.603541 0.961178
vt 0.642512 0.961178
vt 0.357488 0.000000
vt 0.357488 0.961178
vt 0.396459 0.000000
vt 0.396459 0.961178
vt 0.667533 0.000000
vt 0.667533 0.961178
vt 0.554434 0.000000
vt 0.554434 0.961178
vt 0.554434 0.961178
vt 0.565602 1.000000
vt 0.500000 1.000000
vt 0.500000 0.961178
vt 0.603541 0.961178
vt 0.624782 1.000000
vt 0.642512 0.961178
vt 0.671748 1.000000
vt 0.667533 0.961178
vt 0.701902 1.000000
vt 0.676154 0.961178
vt 0.712292 1.000000
vt 0.667533 0.961178
vt 0.701902 1.000000
vt 0.642512 0.961178
vt 0.671748 1.000000
vt 0.603541 0.961178
vt 0.624782 1.000000
vt 0.554434 0.961178
vt 0.565602 1.000000
vt 0.500000 0.961178
vt 0.500000 1.000000
vt 0.445565 0.961178
vt 0.434398 1.000000
vt 0.396459 0.961178
vt 0.375218 1.000000
vt 0.357488 0.961178
vt 0.328252 1.000000
vt 0.332468 0.961178
vt 0.298098 1.000000
vt 0.323846 0.961178
vt 0.287708 1.000000
vt 0.332468 0.961178
vt 0.298098 1.000000
vt 0.357489 0.961178
vt 0.328252 1.000000
vt 0.396459 0.961178
vt 0.375218 1.000000
vt 0.445566 0.961178
vt 0.434398 1.000000
vt 0.500000 1.000000
vt 0.332468 0.000000
vt 0.323846 0.000000
vt 0.642512 0.000000
vt 0.603541 0.000000
vt 0.500000 0.000000
vt 0.554434 0.000000
vt 0.332468 0.000000
vt 0.554434 0.000000
vt 0.603541 0.000000
vt 0.357489 0.000000
vt 0.500000 0.000000
vt 0.642512 0.000000
vt 0.396459 0.000000
vt 0.445565 0.000000
vt 0.667533 0.000000
vt 0.445566 0.000000
vt 0.396459 0.000000
vt 0.676154 0.000000
vt 0.357488 0.000000
vt 0.667533 0.000000
vn 0.2995 0.2461 0.9218
vn 0.0000 0.2461 0.9692
vn 0.0000 0.0000 1.0000
vn 0.3090 0.0000 0.9510
vn 0.0000 1.0000 0.0000
vn 0.2995 0.2461 -0.9218
vn 0.5697 0.2461 -0.7841
vn 0.5878 0.0000 -0.8090
vn 0.3090 0.0000 -0.9510
vn 0.9218 0.2461 0.2995
vn 0.7841 0.2461 0.5697
vn 0.8090 0.0000 0.5878
vn 0.9510 0.0000 0.3090
vn -0.9218 0.2461 0.2995
vn -0.9692 0.2461 0.0000
vn -1.0000 0.0000 0.0000
vn -0.9510 0.0000 0.3090
vn -0.2995 0.2461 -0.9218
vn 0.0000 0.2461 -0.9692
vn 0.0000 0.0000 -1.0000
vn -0.3090 0.0000 -0.9510
vn 0.9218 0.2461 -0.2995
vn 0.9692 0.2461 0.0000
vn 1.0000 0.0000 0.0000
vn 0.9510 0.0000 -0.3090
vn -0.5697 0.2461 0.7841
vn -0.7841 0.2461 0.5697
vn -0.8090 0.0000 0.5878
vn -0.5878 0.0000 0.8090
vn -0.7841 0.2461 -0.5697
vn -0.5697 0.2461 -0.7841
vn -0.5878 0.0000 -0.8090
vn -0.8090 0.0000 -0.5878
vn 0.7841 0.2461 -0.5697
vn 0.8090 0.0000 -0.5878
vn 0.5697 0.2461 0.7841
vn 0.5878 0.0000 0.8090
vn -0.9218 0.2461 -0.2995
vn -0.9510 0.0000 -0.3090
vn -0.2995 0.2461 0.9218
vn -0.3090 0.0000 0.9510
vn -0.2171 0.7114 0.6683
vn 0.0000 0.7114 0.7027
vn -0.4130 0.7114 0.5685
vn -0.5685 0.7114 0.4130
vn -0.6683 0.7114 0.2171
vn -0.7027 0.7114 0.0000
vn -0.6683 0.7114 -0.2171
vn -0.5685 0.7114 -0.4130
vn -0.4130 0.7114 -0.5685
vn -0.2171 0.7114 -0.6683
vn 0.0000 0.7114 -0.7027
vn 0.2171 0.7114 -0.6683
vn 0.4130 0.7114 -0.5685
vn 0.5685 0.7114 -0.4130
vn 0.6683 0.7114 -0.2171
vn 0.7027 0.7114 0.0000
vn 0.6683 0.7114 0.2171
vn 0.5685 0.7114 0.4130
vn 0.4130 0.7114 0.5685
vn 0.2171 0.7114 0.6683
vn 0.8302 0.4877 -0.2698
vn 0.8730 0.4877 0.0000
vn -0.7062 0.4877 -0.5131
vn -0.5131 0.4877 -0.7062
vn 0.0000 0.4877 0.8730
vn -0.2698 0.4877 0.8302
vn 0.8302 0.4877 0.2698
vn -0.2698 0.4877 -0.8302
vn -0.5131 0.4877 0.7062
vn 0.7062 0.4877 0.5131
vn 0.0000 0.4877 -0.8730
vn -0.7062 0.4877 0.5131
vn 0.5131 0.4877 0.7062
vn 0.2698 0.4877 -0.8302
vn -0.8302 0.4877 0.2698
vn 0.2698 0.4877 0.8302
vn 0.5131 0.4877 -0.7062
vn -0.8730 0.4877 0.0000
vn 0.7062 0.4877 -0.5131
vn -0.8302 0.4877 -0.2698
usemtl None
s 1
f 20/1/1 1/2/2 86/3/3 64/4/4
f 29/5/5 22/6/5 27/7/5
f 92/8/5 22/9/5 29/5/5
f 94/10/5 22/11/5 92/8/5
f 35/12/5 23/13/5 22/14/5 94/10/5
f 98/15/5 23/13/5 35/12/5
f 39/16/5 23/17/5 98/15/5
f 102/18/5 23/19/5 39/16/5
f 43/20/5 23/21/5 102/18/5
f 45/22/5 24/23/5 23/24/5 43/20/5
f 47/25/5 24/23/5 45/22/5
f 49/26/5 24/27/5 47/25/5
f 51/28/5 24/29/5 49/26/5
f 53/30/5 21/31/5 24/32/5 51/28/5
f 55/33/5 21/31/5 53/30/5
f 57/34/5 21/35/5 55/33/5
f 59/36/5 21/31/5 57/34/5
f 61/37/5 21/38/5 59/36/5
f 63/39/5 21/40/5 61/37/5
f 26/41/5 21/42/5 63/39/5
f 12/43/6 13/44/7 50/45/8 48/46/9
f 17/47/10 18/48/11 60/49/12 58/50/13
f 5/51/14 6/52/15 36/53/16 34/54/17
f 10/55/18 11/56/19 46/57/20 44/58/21
f 15/59/22 16/60/23 56/61/24 54/62/25
f 3/63/26 4/64/27 32/65/28 30/66/29
f 8/67/30 9/68/31 42/69/32 40/70/33
f 13/44/7 14/71/34 52/72/35 50/45/8
f 18/48/11 19/73/36 62/74/37 60/49/12
f 6/52/15 7/75/38 38/76/39 36/53/16
f 11/56/19 12/43/6 48/46/9 46/57/20
f 16/60/23 17/47/10 58/50/13 56/61/24
f 2/77/40 3/63/26 30/66/29 28/78/41
f 4/64/27 5/51/14 34/54/17 32/65/28
f 9/68/31 10/55/18 44/58/21 42/69/32
f 1/2/2 2/77/40 28/78/41 86/3/3
f 14/71/34 15/59/22 54/62/25 52/72/35
f 19/73/36 20/1/1 64/4/4 62/74/37
f 7/75/38 8/67/30 40/70/33 38/76/39
f 85/79/42 88/80/42 87/81/43 25/82/43
f 89/83/44 90/84/44 88/80/42 85/79/42
f 91/85/45 31/86/45 90/84/44 89/83/44
f 93/87/46 33/88/46 31/86/45 91/85/45
f 95/89/47 96/90/47 33/88/46 93/87/46
f 97/91/48 37/92/48 96/90/47 95/89/47
f 99/93/49 100/94/49 37/92/48 97/91/48
f 101/95/50 41/96/50 100/94/49 99/93/49
f 103/97/51 104/98/51 41/96/50 101/95/50
f 105/99/52 106/100/52 104/98/51 103/97/51
f 107/101/53 108/102/53 106/100/52 105/99/52
f 109/103/54 110/104/54 108/102/53 107/101/53
f 111/105/55 112/106/55 110/104/54 109/103/54
f 113/107/56 114/108/56 112/106/55 111/105/55
f 115/109/57 116/110/57 114/108/56 113/107/56
f 117/111/58 118/112/58 116/110/57 115/109/57
f 119/113/59 120/114/59 118/112/58 117/111/58
f 121/115/60 122/116/60 120/114/59 119/113/59
f 123/117/61 124/118/61 122/116/60 121/115/60
f 25/82/43 87/81/43 124/118/61 123/117/61
f 27/7/5 22/6/5 21/119/5 26/41/5
f 16/60/23 15/59/22 79/120/62 80/121/63
f 9/68/31 8/67/30 72/122/64 73/123/65
f 2/77/40 1/2/2 65/124/66 66/125/67
f 17/47/10 16/60/23 80/121/63 81/126/68
f 10/55/18 9/68/31 73/123/65 74/127/69
f 3/63/26 2/77/40 66/125/67 67/128/70
f 18/48/11 17/47/10 81/126/68 82/129/71
f 11/56/19 10/55/18 74/127/69 75/130/72
f 4/64/27 3/63/26 67/128/70 68/131/73
f 19/73/36 18/48/11 82/129/71 83/132/74
f 12/43/6 11/56/19 75/130/72 76/133/75
f 5/51/14 4/64/27 68/131/73 69/134/76
f 20/1/1 19/73/36 83/132/74 84/135/77
f 13/44/7 12/43/6 76/133/75 77/136/78
f 6/52/15 5/51/14 69/134/76 70/137/79
f 1/2/2 20/1/1 84/135/77 65/124/66
f 14/71/34 13/44/7 77/136/78 78/138/80
f 7/75/38 6/52/15 70/137/79 71/139/81
f 15/59/22 14/71/34 78/138/80 79/120/62
f 8/67/30 7/75/38 71/139/81 72/122/64
