# This file uses centimeters as units for non-parametric coordinates.

g default
v 10.872705 7.301865 -7.899484
v 4.153003 7.301865 -12.781633
v -4.153006 7.301865 -12.781631
v -10.872707 7.301865 -7.899482
v -13.439403 7.301865 0.000001
v -10.872705 7.301865 7.899483
v -4.153003 7.301865 12.781631
v 4.153004 7.301865 12.781630
v 10.872704 7.301865 7.899482
v 13.439401 7.301865 0.000000
v 10.872705 53.024492 -7.899484
v 4.153003 53.024492 -12.781633
v -4.153006 53.024492 -12.781631
v -10.872707 53.024492 -7.899482
v -13.439403 53.024492 0.000001
v -10.872705 53.024492 7.899483
v -4.153003 53.024492 12.781631
v 4.153004 53.024492 12.781630
v 10.872704 53.024492 7.899482
v 13.439401 53.024492 0.000000
vt 0.000000 0.000000
vt 0.101100 0.000000
vt 0.200825 0.000000
vt 0.300550 0.000000
vt 0.400275 0.000000
vt 0.500000 0.000000
vt 0.599725 0.000000
vt 0.699450 0.000000
vt 0.799175 0.000000
vt 0.898900 0.000000
vt 1.000000 0.000000
vt 0.000000 1.000000
vt 0.101100 1.000000
vt 0.200825 1.000000
vt 0.300550 1.000000
vt 0.400275 1.000000
vt 0.500000 1.000000
vt 0.599725 1.000000
vt 0.699450 1.000000
vt 0.799175 1.000000
vt 0.898900 1.000000
vt 1.000000 1.000000
vn 0.809017 0.000000 -0.587785
vn 0.309017 0.000000 -0.951057
vn 0.309017 0.000000 -0.951057
vn 0.809017 0.000000 -0.587785
vn -0.309017 0.000000 -0.951056
vn -0.309017 0.000000 -0.951056
vn -0.809017 0.000000 -0.587785
vn -0.809017 0.000000 -0.587785
vn -1.000000 0.000000 0.000000
vn -1.000000 0.000000 0.000000
vn -0.809017 0.000000 0.587785
vn -0.809017 0.000000 0.587785
vn -0.309017 0.000000 0.951057
vn -0.309017 0.000000 0.951057
vn 0.309017 0.000000 0.951056
vn 0.309017 0.000000 0.951056
vn 0.809017 0.000000 0.587785
vn 0.809017 0.000000 0.587785
vn 1.000000 0.000000 0.000000
vn 1.000000 0.000000 0.000000
s 1
g pCylinder1
f 1/1/1 2/2/2 12/13/3 11/12/4
f 2/2/2 3/3/5 13/14/6 12/13/3
f 3/3/5 4/4/7 14/15/8 13/14/6
f 4/4/7 5/5/9 15/16/10 14/15/8
f 5/5/9 6/6/11 16/17/12 15/16/10
f 6/6/11 7/7/13 17/18/14 16/17/12
f 7/7/13 8/8/15 18/19/16 17/18/14
f 8/8/15 9/9/17 19/20/18 18/19/16
f 9/9/17 10/10/19 20/21/20 19/20/18
f 10/10/19 1/11/1 11/22/4 20/21/20
