# Blender v2.79 (sub 0) OBJ File: 'ball.blend'
# www.blender.org
mtllib ball.mtl
o Sphere
v -0.000000 -0.382683 -0.923880
v -0.000000 -0.707107 -0.707107
v 0.000000 -0.923880 -0.382683
v 0.000000 -1.000000 -0.000000
v 0.000000 -0.923880 0.382683
v 0.000000 -0.707107 0.707107
v 0.000000 -0.382684 0.923880
v 0.000000 -0.000000 1.000000
v -0.000000 0.000000 -1.000000
v 0.146447 -0.353553 -0.923880
v 0.270598 -0.653281 -0.707107
v 0.353553 -0.853553 -0.382683
v 0.382683 -0.923880 -0.000000
v 0.353553 -0.853553 0.382683
v 0.270598 -0.653282 0.707107
v 0.146447 -0.353553 0.923880
v 0.270598 -0.270598 -0.923880
v 0.500000 -0.500000 -0.707107
v 0.653281 -0.653281 -0.382683
v 0.707107 -0.707107 -0.000000
v 0.653281 -0.653281 0.382683
v 0.500000 -0.500000 0.707107
v 0.270598 -0.270598 0.923880
v 0.353553 -0.146447 -0.923880
v 0.653281 -0.270598 -0.707107
v 0.853553 -0.353553 -0.382683
v 0.923879 -0.382683 0.000000
v 0.853553 -0.353553 0.382683
v 0.653281 -0.270598 0.707107
v 0.353553 -0.146447 0.923880
v 0.382683 -0.000000 -0.923880
v 0.707107 -0.000000 -0.707107
v 0.923879 0.000000 -0.382683
v 1.000000 -0.000000 0.000000
v 0.923879 -0.000000 0.382684
v 0.707107 -0.000000 0.707107
v 0.382683 -0.000000 0.923880
v 0.353553 0.146446 -0.923880
v 0.653281 0.270598 -0.707107
v 0.853553 0.353553 -0.382683
v 0.923879 0.382683 0.000000
v 0.853553 0.353553 0.382684
v 0.653281 0.270598 0.707107
v 0.353553 0.146446 0.923880
v 0.270598 0.270598 -0.923880
v 0.500000 0.500000 -0.707107
v 0.653281 0.653281 -0.382683
v 0.707106 0.707107 0.000000
v 0.653281 0.653281 0.382684
v 0.500000 0.500000 0.707107
v 0.270598 0.270598 0.923880
v 0.146446 0.353553 -0.923880
v 0.270598 0.653281 -0.707107
v 0.353553 0.853553 -0.382683
v 0.382683 0.923879 0.000000
v 0.353553 0.853553 0.382684
v 0.270598 0.653281 0.707107
v 0.146446 0.353553 0.923880
v -0.000000 0.382683 -0.923880
v -0.000000 0.707106 -0.707107
v -0.000000 0.923879 -0.382683
v -0.000000 1.000000 0.000000
v -0.000000 0.923879 0.382684
v -0.000000 0.707106 0.707107
v -0.000000 0.382683 0.923880
v -0.146447 0.353553 -0.923880
v -0.270598 0.653281 -0.707107
v -0.353554 0.853553 -0.382683
v -0.382684 0.923879 0.000000
v -0.353554 0.853553 0.382684
v -0.270598 0.653281 0.707107
v -0.146447 0.353553 0.923880
v -0.270598 0.270598 -0.923880
v -0.500000 0.499999 -0.707107
v -0.653282 0.653281 -0.382683
v -0.707107 0.707106 0.000000
v -0.653282 0.653281 0.382684
v -0.500000 0.499999 0.707107
v -0.270598 0.270598 0.923880
v -0.353553 0.146446 -0.923880
v -0.653281 0.270598 -0.707107
v -0.853553 0.353553 -0.382683
v -0.923879 0.382683 0.000000
v -0.853553 0.353553 0.382684
v -0.653281 0.270597 0.707107
v -0.353553 0.146446 0.923880
v -0.382683 -0.000000 -0.923880
v -0.707106 -0.000000 -0.707107
v -0.923879 -0.000000 -0.382683
v -1.000000 -0.000001 0.000000
v -0.923879 -0.000001 0.382684
v -0.707106 -0.000001 0.707107
v -0.382683 -0.000000 0.923880
v -0.353553 -0.146447 -0.923880
v -0.653281 -0.270598 -0.707107
v -0.853553 -0.353554 -0.382683
v -0.923879 -0.382684 0.000000
v -0.853553 -0.353554 0.382683
v -0.653281 -0.270598 0.707107
v -0.353553 -0.146447 0.923880
v -0.270598 -0.270598 -0.923880
v -0.499999 -0.500000 -0.707107
v -0.653281 -0.653282 -0.382683
v -0.707106 -0.707107 -0.000000
v -0.653281 -0.653282 0.382683
v -0.499999 -0.500000 0.707107
v -0.270598 -0.270598 0.923880
v -0.146446 -0.353553 -0.923880
v -0.270598 -0.653281 -0.707107
v -0.353553 -0.853553 -0.382683
v -0.382683 -0.923880 -0.000000
v -0.353553 -0.853553 0.382683
v -0.270598 -0.653281 0.707107
v -0.146446 -0.353553 0.923880
vt 0.493651 0.003597
vt 0.684993 0.003597
vt 0.684993 0.066105
vt 0.493651 0.066105
vt 0.847204 0.003597
vt 0.955591 0.003597
vt 0.955591 0.066105
vt 0.847204 0.066105
vt 0.031711 0.003597
vt 0.140097 0.003597
vt 0.140097 0.066105
vt 0.031711 0.066105
vt 0.302309 0.003597
vt 0.302309 0.066105
vt 0.993651 0.460920
vt -0.000490 0.503664
vt 0.140097 0.128613
vt 0.031711 0.128613
vt 0.493651 0.128613
vt 0.302309 0.128613
vt 0.847204 0.128613
vt 0.684993 0.128613
vt 0.955591 0.128613
vt 0.955591 0.191121
vt 0.031711 0.191121
vt 0.302309 0.191121
vt 0.140097 0.191121
vt 0.684992 0.191121
vt 0.493651 0.191121
vt 0.847204 0.191121
vt 0.302309 0.253629
vt 0.140097 0.253629
vt 0.684992 0.253629
vt 0.493651 0.253629
vt 0.955590 0.253629
vt 0.847204 0.253629
vt 0.031711 0.253629
vt 0.140097 0.316137
vt 0.031711 0.316137
vt 0.493651 0.316137
vt 0.302309 0.316137
vt 0.847204 0.316137
vt 0.684992 0.316137
vt 0.955590 0.316137
vt 0.493651 0.378645
vt 0.302309 0.378645
vt 0.847204 0.378645
vt 0.684992 0.378645
vt 0.955590 0.378645
vt 0.031711 0.378645
vt 0.140097 0.378645
vt 0.031711 0.441153
vt 0.302309 0.441153
vt 0.140097 0.441153
vt 0.684992 0.441153
vt 0.493651 0.441153
vt 0.955590 0.441153
vt 0.847204 0.441153
vt 0.684992 0.503661
vt 0.493651 0.503661
vt 0.955590 0.503661
vt 0.847204 0.503661
vt 0.140097 0.503661
vt 0.031711 0.503661
vt 0.302309 0.503661
vt 0.140097 0.566169
vt 0.031711 0.566169
vt 0.493651 0.566169
vt 0.302309 0.566169
vt 0.847204 0.566169
vt 0.684992 0.566169
vt 0.955591 0.566169
vt 0.000487 0.504641
vt 0.847204 0.628678
vt 0.684992 0.628678
vt 0.955591 0.628677
vt 0.031711 0.628678
vt 0.302309 0.628678
vt 0.140097 0.628678
vt 0.493651 0.628678
vt 0.031711 0.691186
vt 0.302309 0.691186
vt 0.140097 0.691186
vt 0.684993 0.691186
vt 0.493651 0.691186
vt 0.955591 0.691186
vt 0.847204 0.691186
vt 0.955591 0.753694
vt 0.847204 0.753694
vt 0.140097 0.753694
vt 0.031711 0.753694
vt 0.493651 0.753694
vt 0.302309 0.753694
vt 0.684993 0.753694
vt 0.140097 0.816202
vt 0.031711 0.816202
vt 0.493651 0.816202
vt 0.302309 0.816202
vt 0.847204 0.816202
vt 0.684993 0.816202
vt 0.955591 0.816202
vt 0.955591 0.878710
vt 0.031711 0.878710
vt 0.302309 0.878710
vt 0.140097 0.878710
vt 0.684993 0.878710
vt 0.493651 0.878710
vt 0.847204 0.878710
vt 0.302309 0.941218
vt 0.140097 0.941218
vt 0.684993 0.941218
vt 0.493651 0.941218
vt 0.955591 0.941218
vt 0.847204 0.941218
vt 0.031711 0.941218
vt 0.140097 1.003726
vt 0.031711 1.003726
vt 0.493651 1.003726
vt 0.302309 1.003726
vt 0.847204 1.003726
vt 0.684992 1.003726
vt 0.955591 1.003726
vn 0.0000 -1.0000 0.0000
vn 0.0000 -0.9273 -0.3743
vn 0.3548 -0.8567 -0.3743
vn 0.3827 -0.9239 0.0000
vn 0.0000 -0.7188 -0.6952
vn 0.0000 -0.4031 -0.9152
vn 0.1542 -0.3724 -0.9152
vn 0.2751 -0.6641 -0.6952
vn 0.0000 -0.4031 0.9152
vn 0.0000 -0.7188 0.6952
vn 0.2751 -0.6641 0.6952
vn 0.1542 -0.3724 0.9152
vn 0.0000 -0.9273 0.3743
vn 0.3548 -0.8567 0.3743
vn 0.0000 0.0000 -1.0000
vn 0.0000 0.0000 1.0000
vn 0.5083 -0.5083 0.6952
vn 0.2850 -0.2850 0.9152
vn 0.7071 -0.7071 0.0000
vn 0.6557 -0.6557 0.3743
vn 0.5083 -0.5083 -0.6952
vn 0.6557 -0.6557 -0.3743
vn 0.2850 -0.2850 -0.9152
vn 0.3724 -0.1542 -0.9152
vn 0.3724 -0.1542 0.9152
vn 0.8567 -0.3548 0.3743
vn 0.6641 -0.2751 0.6952
vn 0.8567 -0.3548 -0.3743
vn 0.9239 -0.3827 0.0000
vn 0.6641 -0.2751 -0.6952
vn 0.9273 0.0000 0.3743
vn 0.7188 0.0000 0.6952
vn 0.9273 0.0000 -0.3743
vn 1.0000 0.0000 0.0000
vn 0.4031 0.0000 -0.9152
vn 0.7188 0.0000 -0.6952
vn 0.4031 0.0000 0.9152
vn 0.6641 0.2751 0.6952
vn 0.3724 0.1542 0.9152
vn 0.9239 0.3827 0.0000
vn 0.8567 0.3548 0.3743
vn 0.6641 0.2751 -0.6952
vn 0.8567 0.3548 -0.3743
vn 0.3724 0.1542 -0.9152
vn 0.7071 0.7071 0.0000
vn 0.6557 0.6557 0.3743
vn 0.5083 0.5083 -0.6952
vn 0.6557 0.6557 -0.3743
vn 0.2850 0.2850 -0.9152
vn 0.2850 0.2850 0.9152
vn 0.5083 0.5083 0.6952
vn 0.1542 0.3724 0.9152
vn 0.3548 0.8567 0.3743
vn 0.2751 0.6641 0.6952
vn 0.3548 0.8567 -0.3743
vn 0.3827 0.9239 0.0000
vn 0.1542 0.3724 -0.9152
vn 0.2751 0.6641 -0.6952
vn 0.0000 0.9273 -0.3743
vn 0.0000 1.0000 0.0000
vn 0.0000 0.4031 -0.9152
vn 0.0000 0.7188 -0.6952
vn 0.0000 0.7188 0.6952
vn 0.0000 0.4031 0.9152
vn 0.0000 0.9273 0.3743
vn -0.2751 0.6641 0.6952
vn -0.1542 0.3724 0.9152
vn -0.3827 0.9239 0.0000
vn -0.3548 0.8567 0.3743
vn -0.2751 0.6641 -0.6952
vn -0.3548 0.8567 -0.3743
vn -0.1542 0.3724 -0.9152
vn -0.5083 0.5083 -0.6952
vn -0.6557 0.6557 -0.3743
vn -0.2850 0.2850 -0.9152
vn -0.2850 0.2850 0.9152
vn -0.6557 0.6557 0.3743
vn -0.5083 0.5083 0.6952
vn -0.7071 0.7071 0.0000
vn -0.3724 0.1542 0.9152
vn -0.8567 0.3548 0.3743
vn -0.6641 0.2751 0.6952
vn -0.8567 0.3548 -0.3743
vn -0.9239 0.3827 0.0000
vn -0.3724 0.1542 -0.9152
vn -0.6641 0.2751 -0.6952
vn -0.4031 0.0000 -0.9152
vn -0.7188 0.0000 -0.6952
vn -0.7188 0.0000 0.6952
vn -0.4031 0.0000 0.9152
vn -1.0000 0.0000 0.0000
vn -0.9273 0.0000 0.3743
vn -0.9273 0.0000 -0.3743
vn -0.6641 -0.2751 0.6952
vn -0.3724 -0.1542 0.9152
vn -0.9239 -0.3827 0.0000
vn -0.8567 -0.3548 0.3743
vn -0.6641 -0.2751 -0.6952
vn -0.8567 -0.3548 -0.3743
vn -0.3724 -0.1542 -0.9152
vn -0.2850 -0.2850 -0.9152
vn -0.2850 -0.2850 0.9152
vn -0.6557 -0.6557 0.3743
vn -0.5083 -0.5083 0.6952
vn -0.6557 -0.6557 -0.3743
vn -0.7071 -0.7071 0.0000
vn -0.5083 -0.5083 -0.6952
vn -0.3548 -0.8567 0.3743
vn -0.2751 -0.6641 0.6952
vn -0.3548 -0.8567 -0.3743
vn -0.3827 -0.9239 0.0000
vn -0.1542 -0.3724 -0.9152
vn -0.2751 -0.6641 -0.6952
vn -0.1542 -0.3724 0.9152
usemtl Material.001
s 1
f 4/1/1 3/2/2 12/3/3 13/4/4
f 2/5/5 1/6/6 10/7/7 11/8/8
f 7/9/9 6/10/10 15/11/11 16/12/12
f 5/13/13 4/1/1 13/4/4 14/14/14
f 3/2/2 2/5/5 11/8/8 12/3/3
f 1/6/6 9/15/15 10/7/7
f 8/16/16 7/9/9 16/12/12
f 6/10/10 5/13/13 14/14/14 15/11/11
f 16/12/12 15/11/11 22/17/17 23/18/18
f 14/14/14 13/4/4 20/19/19 21/20/20
f 12/3/3 11/8/8 18/21/21 19/22/22
f 10/7/7 9/15/15 17/23/23
f 8/16/16 16/12/12 23/18/18
f 15/11/11 14/14/14 21/20/20 22/17/17
f 13/4/4 12/3/3 19/22/22 20/19/19
f 11/8/8 10/7/7 17/23/23 18/21/21
f 17/23/23 9/15/15 24/24/24
f 8/16/16 23/18/18 30/25/25
f 22/17/17 21/20/20 28/26/26 29/27/27
f 20/19/19 19/22/22 26/28/28 27/29/29
f 18/21/21 17/23/23 24/24/24 25/30/30
f 23/18/18 22/17/17 29/27/27 30/25/25
f 21/20/20 20/19/19 27/29/29 28/26/26
f 19/22/22 18/21/21 25/30/30 26/28/28
f 29/27/27 28/26/26 35/31/31 36/32/32
f 27/29/29 26/28/28 33/33/33 34/34/34
f 25/30/30 24/24/24 31/35/35 32/36/36
f 30/25/25 29/27/27 36/32/32 37/37/37
f 28/26/26 27/29/29 34/34/34 35/31/31
f 26/28/28 25/30/30 32/36/36 33/33/33
f 24/24/24 9/15/15 31/35/35
f 8/16/16 30/25/25 37/37/37
f 37/37/37 36/32/32 43/38/38 44/39/39
f 35/31/31 34/34/34 41/40/40 42/41/41
f 33/33/33 32/36/36 39/42/42 40/43/43
f 31/35/35 9/15/15 38/44/44
f 8/16/16 37/37/37 44/39/39
f 36/32/32 35/31/31 42/41/41 43/38/38
f 34/34/34 33/33/33 40/43/43 41/40/40
f 32/36/36 31/35/35 38/44/44 39/42/42
f 42/41/41 41/40/40 48/45/45 49/46/46
f 40/43/43 39/42/42 46/47/47 47/48/48
f 38/44/44 9/15/15 45/49/49
f 8/16/16 44/39/39 51/50/50
f 43/38/38 42/41/41 49/46/46 50/51/51
f 41/40/40 40/43/43 47/48/48 48/45/45
f 39/42/42 38/44/44 45/49/49 46/47/47
f 44/39/39 43/38/38 50/51/51 51/50/50
f 8/16/16 51/50/50 58/52/52
f 50/51/51 49/46/46 56/53/53 57/54/54
f 48/45/45 47/48/48 54/55/55 55/56/56
f 46/47/47 45/49/49 52/57/57 53/58/58
f 51/50/50 50/51/51 57/54/54 58/52/52
f 49/46/46 48/45/45 55/56/56 56/53/53
f 47/48/48 46/47/47 53/58/58 54/55/55
f 45/49/49 9/15/15 52/57/57
f 55/56/56 54/55/55 61/59/59 62/60/60
f 53/58/58 52/57/57 59/61/61 60/62/62
f 58/52/52 57/54/54 64/63/63 65/64/64
f 56/53/53 55/56/56 62/60/60 63/65/65
f 54/55/55 53/58/58 60/62/62 61/59/59
f 52/57/57 9/15/15 59/61/61
f 8/16/16 58/52/52 65/64/64
f 57/54/54 56/53/53 63/65/65 64/63/63
f 65/64/64 64/63/63 71/66/66 72/67/67
f 63/65/65 62/60/60 69/68/68 70/69/69
f 61/59/59 60/62/62 67/70/70 68/71/71
f 59/61/61 9/15/15 66/72/72
f 8/73/16 65/64/64 72/67/67
f 64/63/63 63/65/65 70/69/69 71/66/66
f 62/60/60 61/59/59 68/71/71 69/68/68
f 60/62/62 59/61/61 66/72/72 67/70/70
f 68/71/71 67/70/70 74/74/73 75/75/74
f 66/72/72 9/15/15 73/76/75
f 8/73/16 72/67/67 79/77/76
f 71/66/66 70/69/69 77/78/77 78/79/78
f 69/68/68 68/71/71 75/75/74 76/80/79
f 67/70/70 66/72/72 73/76/75 74/74/73
f 72/67/67 71/66/66 78/79/78 79/77/76
f 70/69/69 69/68/68 76/80/79 77/78/77
f 8/73/16 79/77/76 86/81/80
f 78/79/78 77/78/77 84/82/81 85/83/82
f 76/80/79 75/75/74 82/84/83 83/85/84
f 74/74/73 73/76/75 80/86/85 81/87/86
f 79/77/76 78/79/78 85/83/82 86/81/80
f 77/78/77 76/80/79 83/85/84 84/82/81
f 75/75/74 74/74/73 81/87/86 82/84/83
f 73/76/75 9/15/15 80/86/85
f 81/87/86 80/86/85 87/88/87 88/89/88
f 86/81/80 85/83/82 92/90/89 93/91/90
f 84/82/81 83/85/84 90/92/91 91/93/92
f 82/84/83 81/87/86 88/89/88 89/94/93
f 80/86/85 9/15/15 87/88/87
f 8/73/16 86/81/80 93/91/90
f 85/83/82 84/82/81 91/93/92 92/90/89
f 83/85/84 82/84/83 89/94/93 90/92/91
f 93/91/90 92/90/89 99/95/94 100/96/95
f 91/93/92 90/92/91 97/97/96 98/98/97
f 89/94/93 88/89/88 95/99/98 96/100/99
f 87/88/87 9/15/15 94/101/100
f 8/73/16 93/91/90 100/96/95
f 92/90/89 91/93/92 98/98/97 99/95/94
f 90/92/91 89/94/93 96/100/99 97/97/96
f 88/89/88 87/88/87 94/101/100 95/99/98
f 94/101/100 9/15/15 101/102/101
f 8/73/16 100/96/95 107/103/102
f 99/95/94 98/98/97 105/104/103 106/105/104
f 97/97/96 96/100/99 103/106/105 104/107/106
f 95/99/98 94/101/100 101/102/101 102/108/107
f 100/96/95 99/95/94 106/105/104 107/103/102
f 98/98/97 97/97/96 104/107/106 105/104/103
f 96/100/99 95/99/98 102/108/107 103/106/105
f 106/105/104 105/104/103 112/109/108 113/110/109
f 104/107/106 103/106/105 110/111/110 111/112/111
f 102/108/107 101/102/101 108/113/112 109/114/113
f 107/103/102 106/105/104 113/110/109 114/115/114
f 105/104/103 104/107/106 111/112/111 112/109/108
f 103/106/105 102/108/107 109/114/113 110/111/110
f 101/102/101 9/15/15 108/113/112
f 8/73/16 107/103/102 114/115/114
f 114/115/114 113/110/109 6/116/10 7/117/9
f 112/109/108 111/112/111 4/118/1 5/119/13
f 110/111/110 109/114/113 2/120/5 3/121/2
f 108/113/112 9/15/15 1/6/6
f 8/73/16 114/115/114 7/117/9
f 113/110/109 112/109/108 5/119/13 6/116/10
f 111/112/111 110/111/110 3/121/2 4/118/1
f 109/114/113 108/113/112 1/122/6 2/120/5
